HIERARCHY
ROOT Hips
{
	OFFSET 0.000000 0.000000 0.000000
	CHANNELS 6 Xposition Yposition Zposition Zrotation Yrotation Xrotation 
	JOINT LHipJoint
	{
		OFFSET 0.000000 0.000000 0.000000
		CHANNELS 3 Zrotation Yrotation Xrotation
		JOINT LeftUpLeg
		{
			OFFSET 1.363060 -1.794630 0.839290
			CHANNELS 3 Zrotation Yrotation Xrotation
			JOINT LeftLeg
			{
				OFFSET 2.448110 -6.726130 0.000000
				CHANNELS 3 Zrotation Yrotation Xrotation
				JOINT LeftFoot
				{
					OFFSET 2.562200 -7.039590 0.000000
					CHANNELS 3 Zrotation Yrotation Xrotation
					JOINT LeftToeBase
					{
						OFFSET 0.157640 -0.433110 2.322550
						CHANNELS 3 Zrotation Yrotation Xrotation
						End Site
						{
							OFFSET 0.000000 0.000000 0.000000
						}
					}
				}
			}
		}
	}
	JOINT RHipJoint
	{
		OFFSET 0.000000 0.000000 0.000000
		CHANNELS 3 Zrotation Yrotation Xrotation
		JOINT RightUpLeg
		{
			OFFSET -1.305520 -1.794630 0.839290
			CHANNELS 3 Zrotation Yrotation Xrotation
			JOINT RightLeg
			{
				OFFSET -2.542530 -6.985550 0.000000
				CHANNELS 3 Zrotation Yrotation Xrotation
				JOINT RightFoot
				{
					OFFSET -2.568260 -7.056230 0.000000
					CHANNELS 3 Zrotation Yrotation Xrotation
					JOINT RightToeBase
					{
						OFFSET -0.164730 -0.452590 2.363150
						CHANNELS 3 Zrotation Yrotation Xrotation
						End Site
						{
							OFFSET 0.000000 0.000000 0.000000
						}
					}
				}
			}
		}
	}
	JOINT LowerBack
	{
		OFFSET 0.000000 0.000000 0.000000
		CHANNELS 3 Zrotation Yrotation Xrotation
		JOINT Spine
		{
			OFFSET 0.028270 2.035590 -0.193380
			CHANNELS 3 Zrotation Yrotation Xrotation
			JOINT Spine1
			{
				OFFSET 0.056720 2.048850 -0.042750
				CHANNELS 3 Zrotation Yrotation Xrotation
				JOINT Neck
				{
					OFFSET 0.000000 0.000000 0.000000
					CHANNELS 3 Zrotation Yrotation Xrotation
					JOINT Neck1
					{
						OFFSET -0.054170 1.746240 0.172020
						CHANNELS 3 Zrotation Yrotation Xrotation
						JOINT Head
						{
							OFFSET 0.104070 1.761360 -0.123970
							CHANNELS 3 Zrotation Yrotation Xrotation
							End Site
							{
								OFFSET 0.000000 0.000000 0.000000
							}
						}
					}
				}
				JOINT LeftShoulder
				{
					OFFSET 0.000000 0.000000 0.000000
					CHANNELS 3 Zrotation Yrotation Xrotation
					JOINT LeftArm
					{
						OFFSET 3.362410 1.200890 -0.311210
						CHANNELS 3 Zrotation Yrotation Xrotation
						JOINT LeftForeArm
						{
							OFFSET 4.983000 -0.000000 -0.000000
							CHANNELS 3 Zrotation Yrotation Xrotation
							JOINT LeftHand
							{
								OFFSET 3.483560 -0.000000 -0.000000
								CHANNELS 3 Zrotation Yrotation Xrotation
								JOINT LeftFingerBase
								{
									OFFSET 0.000000 0.000000 0.000000
									CHANNELS 3 Zrotation Yrotation Xrotation
									JOINT LeftHandIndex1
									{
										OFFSET 0.715260 -0.000000 -0.000000
										CHANNELS 3 Zrotation Yrotation Xrotation
										End Site
										{
											OFFSET 0.000000 0.000000 0.000000
										}
									}
								}
								JOINT LThumb
								{
									OFFSET 0.000000 0.000000 0.000000
									CHANNELS 3 Zrotation Yrotation Xrotation
									End Site
									{
										OFFSET 0.000000 0.000000 0.000000
									}
								}
							}
						}
					}
				}
				JOINT RightShoulder
				{
					OFFSET 0.000000 0.000000 0.000000
					CHANNELS 3 Zrotation Yrotation Xrotation
					JOINT RightArm
					{
						OFFSET -3.136600 1.374050 -0.404650
						CHANNELS 3 Zrotation Yrotation Xrotation
						JOINT RightForeArm
						{
							OFFSET -5.241900 -0.000000 -0.000000
							CHANNELS 3 Zrotation Yrotation Xrotation
							JOINT RightHand
							{
								OFFSET -3.444170 -0.000000 -0.000000
								CHANNELS 3 Zrotation Yrotation Xrotation
								JOINT RightFingerBase
								{
									OFFSET 0.000000 0.000000 0.000000
									CHANNELS 3 Zrotation Yrotation Xrotation
									JOINT RightHandIndex1
									{
										OFFSET -0.622530 -0.000000 -0.000000
										CHANNELS 3 Zrotation Yrotation Xrotation
										End Site
										{
											OFFSET 0.000000 0.000000 0.000000
										}
									}
								}
								JOINT RThumb
								{
									OFFSET 0.000000 0.000000 0.000000
									CHANNELS 3 Zrotation Yrotation Xrotation
									End Site
									{
										OFFSET 0.000000 0.000000 0.000000
									}
								}
							}
						}
					}
				}
			}
		}
	}
}
MOTION
Frames: 5
Frame Time: 0.008333
2.219296 15.425040 -2.001024 -1.022026 -35.506905 -3.818107 15.051366 32.267143 1.630471 -29.739291 -14.969871 -14.194492 9.721092 10.298047 43.234907 -2.511847 1.014836 -18.367580 0.000000 0.000000 0.000000 -14.664635 -31.165160 -4.107570 45.638371 15.212807 3.366767 -17.929728 4.748771 52.675782 -5.916307 26.012702 -37.065783 0.000000 0.000000 0.000000 0.876973 0.966025 9.471488 0.493400 3.021073 -4.047700 2.783397 0.796530 -7.169677 -2.209316 0.745976 -1.671401 0.000000 0.000000 0.000000 0.000000 0.000000 0.000000 9.341473 -4.930321 0.120484 -48.242485 -26.002089 -6.567450 82.076506 -80.639824 -0.000000 0.000000 0.000000 0.000000 0.000000 0.000000 0.000000 0.000000 0.000000 0.000000 0.000000 0.000000 0.000000 -4.460524 0.419918 -6.918057 72.281273 39.308405 42.881816 -96.696110 62.424753 0.000000 0.000000 0.000000 0.000000 0.000000 0.000000 0.000000 0.000000 0.000000 0.000000 0.000000 0.000000 0.000000 
2.192449 15.411948 -2.024083 -0.910443 -35.289622 -3.864723 15.071995 32.318620 1.730576 -29.658508 -15.307840 -14.477987 9.561659 10.274058 43.561257 -2.523534 1.007883 -18.217339 0.000000 0.000000 0.000000 -14.557975 -31.273999 -4.190155 45.584501 15.222236 3.282045 -17.880295 4.530335 52.987388 -5.817028 25.755928 -37.209681 0.000000 0.000000 0.000000 0.914837 0.958730 9.506438 0.493385 3.021444 -4.049644 2.709012 0.793056 -7.196126 -2.222906 0.745557 -1.655419 0.000000 0.000000 0.000000 0.000000 0.000000 0.000000 9.315015 -4.936293 0.051727 -48.141979 -25.925291 -6.747568 81.641501 -80.863366 -0.000000 0.000000 0.000000 0.000000 0.000000 0.000000 0.000000 0.000000 0.000000 0.000000 0.000000 0.000000 0.000000 -4.495595 0.451005 -6.904954 72.477722 39.093833 43.040005 -97.172296 62.473453 0.000000 0.000000 0.000000 0.000000 0.000000 0.000000 0.000000 0.000000 0.000000 0.000000 0.000000 0.000000 0.000000 
2.165603 15.398855 -2.047143 -0.799599 -35.072038 -3.910603 15.088736 32.367688 1.829974 -29.570904 -15.644475 -14.765383 9.399465 10.251862 43.885495 -2.534585 1.001953 -18.063171 0.000000 0.000000 0.000000 -14.450262 -31.379947 -4.271395 45.527875 15.234588 3.194989 -17.826338 4.310698 53.298523 -5.712642 25.497152 -37.352431 0.000000 0.000000 0.000000 0.953016 0.951457 9.540555 0.493438 3.021849 -4.051476 2.634694 0.789228 -7.221212 -2.236289 0.744982 -1.639785 0.000000 0.000000 0.000000 0.000000 0.000000 0.000000 9.287334 -4.944092 -0.016333 -48.038673 -25.847248 -6.924846 81.204840 -81.082052 -0.000000 0.000000 0.000000 0.000000 0.000000 0.000000 0.000000 0.000000 0.000000 0.000000 0.000000 0.000000 0.000000 -4.529569 0.483738 -6.891704 72.670809 38.880148 43.197828 -97.640118 62.519766 0.000000 0.000000 0.000000 0.000000 0.000000 0.000000 0.000000 0.000000 0.000000 0.000000 0.000000 0.000000 0.000000 
2.138756 15.385763 -2.070202 -0.689515 -34.854189 -3.955783 15.101627 32.414340 1.928560 -29.476467 -15.979579 -15.056564 9.234557 10.231438 44.207520 -2.544968 0.996996 -17.905070 0.000000 0.000000 0.000000 -14.341520 -31.482987 -4.351271 45.468513 15.249830 3.105643 -17.767802 4.089844 53.609128 -5.603113 25.236438 -37.494131 0.000000 0.000000 0.000000 0.991525 0.944214 9.573861 0.493560 3.022298 -4.053186 2.560459 0.785055 -7.244912 -2.249462 0.744253 -1.624492 0.000000 0.000000 0.000000 0.000000 0.000000 0.000000 9.258431 -4.953700 -0.083674 -47.932587 -25.768010 -7.099088 80.766815 -81.295686 -0.000000 0.000000 0.000000 0.000000 0.000000 0.000000 0.000000 0.000000 0.000000 0.000000 0.000000 0.000000 0.000000 -4.562427 0.518101 -6.878305 72.860553 38.667406 43.355201 -98.099411 62.563883 0.000000 0.000000 0.000000 0.000000 0.000000 0.000000 0.000000 0.000000 0.000000 0.000000 0.000000 0.000000 0.000000 
2.111910 15.372670 -2.093262 -0.580207 -34.636108 -4.000299 15.110708 32.458569 2.026232 -29.375196 -16.312954 -15.351412 9.066986 10.212759 44.527235 -2.554651 0.992960 -17.743033 0.000000 0.000000 0.000000 -14.231770 -31.583103 -4.429765 45.406433 15.267929 3.014052 -17.704634 3.867758 53.919142 -5.488407 24.973855 -37.634882 0.000000 0.000000 0.000000 1.030378 0.937004 9.606379 0.493750 3.022798 -4.054771 2.486320 0.780548 -7.267207 -2.262427 0.743374 -1.609532 0.000000 0.000000 0.000000 0.000000 0.000000 0.000000 9.228305 -4.965095 -0.150272 -47.823741 -25.687629 -7.270104 80.327706 -81.504084 -0.000000 0.000000 0.000000 0.000000 0.000000 0.000000 0.000000 0.000000 0.000000 0.000000 0.000000 0.000000 0.000000 -4.594153 0.554077 -6.864754 73.046973 38.455662 43.512042 -98.550019 62.606002 0.000000 0.000000 0.000000 0.000000 0.000000 0.000000 0.000000 0.000000 0.000000 0.000000 0.000000 0.000000 0.000000 
